<?xml version="1.0" encoding="UTF-8"?>
<svg width="1200" height="800" xmlns="http://www.w3.org/2000/svg">
    <!-- Background -->
    <rect width="1200" height="800" fill="#ffffff"/>
    
    <!-- Title -->
    <text x="600" y="50" font-family="Arial" font-size="24" fill="#333333" text-anchor="middle" font-weight="bold">
        VishwamAI Architecture
    </text>

    <!-- Core Components Section -->
    <g transform="translate(100, 100)">
        <!-- Section Title -->
        <text x="0" y="0" font-family="Arial" font-size="18" fill="#666666">Core Components</text>
        
        <!-- Tree of Thoughts -->
        <rect x="50" y="20" width="200" height="100" rx="10" fill="#e1f5fe" stroke="#01579b" stroke-width="2"/>
        <text x="150" y="70" font-family="Arial" font-size="16" fill="#01579b" text-anchor="middle">
            Tree of Thoughts
            <tspan x="150" y="90" font-size="12">Reasoning &amp; Search</tspan>
        </text>
        
        <!-- Neural Memory -->
        <rect x="300" y="20" width="200" height="100" rx="10" fill="#f3e5f5" stroke="#4a148c" stroke-width="2"/>
        <text x="400" y="70" font-family="Arial" font-size="16" fill="#4a148c" text-anchor="middle">
            Neural Memory
            <tspan x="400" y="90" font-size="12">Context Management</tspan>
        </text>
        
        <!-- Cache Augmentation -->
        <rect x="550" y="20" width="200" height="100" rx="10" fill="#e8f5e9" stroke="#1b5e20" stroke-width="2"/>
        <text x="650" y="70" font-family="Arial" font-size="16" fill="#1b5e20" text-anchor="middle">
            Cache Augmentation
            <tspan x="650" y="90" font-size="12">Knowledge Storage</tspan>
        </text>
    </g>

    <!-- Training System Section -->
    <g transform="translate(100, 300)">
        <!-- Section Title -->
        <text x="0" y="0" font-family="Arial" font-size="18" fill="#666666">Training System</text>
        
        <!-- Advanced Trainer -->
        <rect x="50" y="20" width="300" height="120" rx="10" fill="#fff3e0" stroke="#e65100" stroke-width="2"/>
        <text x="200" y="60" font-family="Arial" font-size="16" fill="#e65100" text-anchor="middle">
            Advanced Trainer
            <tspan x="200" y="80" font-size="12">Component Integration</tspan>
            <tspan x="200" y="100" font-size="12">Mixed Precision &amp; Distributed Training</tspan>
        </text>
        
        <!-- Curriculum Learning -->
        <rect x="400" y="20" width="300" height="120" rx="10" fill="#ffebee" stroke="#b71c1c" stroke-width="2"/>
        <text x="550" y="60" font-family="Arial" font-size="16" fill="#b71c1c" text-anchor="middle">
            Curriculum Learning
            <tspan x="550" y="80" font-size="12">Progressive Difficulty</tspan>
            <tspan x="550" y="100" font-size="12">Dynamic Task Selection</tspan>
        </text>
    </g>

    <!-- Reward System Section -->
    <g transform="translate(100, 500)">
        <!-- Section Title -->
        <text x="0" y="0" font-family="Arial" font-size="18" fill="#666666">Reward System</text>
        
        <!-- SLAP -->
        <rect x="50" y="20" width="250" height="100" rx="10" fill="#e3f2fd" stroke="#0d47a1" stroke-width="2"/>
        <text x="175" y="70" font-family="Arial" font-size="16" fill="#0d47a1" text-anchor="middle">
            SLAP
            <tspan x="175" y="90" font-size="12">Scaled Learning through Action Prediction</tspan>
        </text>
        
        <!-- Math Reasoning -->
        <rect x="350" y="20" width="250" height="100" rx="10" fill="#fce4ec" stroke="#880e4f" stroke-width="2"/>
        <text x="475" y="70" font-family="Arial" font-size="16" fill="#880e4f" text-anchor="middle">
            Math Reasoning
            <tspan x="475" y="90" font-size="12">Step Validation &amp; Operation Scoring</tspan>
        </text>
    </g>

    <!-- Connection Lines -->
    <!-- Core Components Connections -->
    <line x1="350" y1="170" x2="500" y2="170" stroke="#666666" stroke-width="2" stroke-dasharray="5,5"/>
    <line x1="600" y1="170" x2="750" y2="170" stroke="#666666" stroke-width="2" stroke-dasharray="5,5"/>
    
    <!-- Vertical Connections -->
    <line x1="250" y1="220" x2="250" y2="320" stroke="#666666" stroke-width="2" stroke-dasharray="5,5"/>
    <line x1="550" y1="220" x2="550" y2="320" stroke="#666666" stroke-width="2" stroke-dasharray="5,5"/>
    <line x1="400" y1="440" x2="400" y2="520" stroke="#666666" stroke-width="2" stroke-dasharray="5,5"/>

    <!-- Data Flow Arrows -->
    <defs>
        <marker id="arrowhead" markerWidth="10" markerHeight="7" refX="9" refY="3.5" orient="auto">
            <polygon points="0 0, 10 3.5, 0 7" fill="#666666"/>
        </marker>
    </defs>
    <path d="M250,270 Q400,270 400,320" stroke="#666666" stroke-width="2" marker-end="url(#arrowhead)" fill="none"/>
    <path d="M550,270 Q400,270 400,320" stroke="#666666" stroke-width="2" marker-end="url(#arrowhead)" fill="none"/>

    <!-- Legend -->
    <g transform="translate(850, 600)">
        <rect x="0" y="0" width="300" height="150" rx="5" fill="#ffffff" stroke="#cccccc" stroke-width="1"/>
        <text x="10" y="30" font-family="Arial" font-size="14" fill="#333333">Legend:</text>
        
        <!-- Legend Items -->
        <circle cx="20" y="50" r="5" fill="#01579b"/>
        <text x="35" y="55" font-family="Arial" font-size="12" fill="#333333">Core Processing</text>
        
        <circle cx="20" y="80" r="5" fill="#4a148c"/>
        <text x="35" y="85" font-family="Arial" font-size="12" fill="#333333">Memory Management</text>
        
        <circle cx="20" y="110" r="5" fill="#1b5e20"/>
        <text x="35" y="115" font-family="Arial" font-size="12" fill="#333333">Knowledge Storage</text>
        
        <line x1="150" y1="50" x2="200" y2="50" stroke="#666666" stroke-width="2" stroke-dasharray="5,5"/>
        <text x="210" y="55" font-family="Arial" font-size="12" fill="#333333">Data Flow</text>
    </g>
</svg>
